<svg xmlns="http://www.w3.org/2000/svg" id="avatar_2_" width="26.059" height="30.636" data-name="avatar (2)" viewBox="0 0 26.059 30.636">
    <defs>
        <style>
            .cls-1{fill:#707070}
        </style>
    </defs>
    <g id="Group_1081" data-name="Group 1081">
        <path id="Path_1085" d="M143.592 16.507h.2a5.854 5.854 0 0 0 4.473-1.935c2.443-2.753 2.036-7.473 1.992-7.924-.159-3.381-1.757-5-3.077-5.754A7.054 7.054 0 0 0 143.77 0h-.108a7.065 7.065 0 0 0-3.413.869c-1.332.755-2.956 2.373-3.115 5.78-.044.45-.45 5.17 1.992 7.924a5.831 5.831 0 0 0 4.466 1.934zm-4.764-9.7c0-.019.006-.038.006-.051.209-4.549 3.439-5.037 4.822-5.037h.076c1.713.038 4.625.736 4.822 5.037a.124.124 0 0 0 .006.051c.006.044.45 4.358-1.567 6.63a4.158 4.158 0 0 1-3.267 1.358h-.063a4.145 4.145 0 0 1-3.261-1.358c-2.012-2.259-1.581-6.592-1.575-6.63z" class="cls-1" data-name="Path 1085" transform="translate(-130.673)"/>
        <path id="Path_1086" d="M62.13 267.133v-.019c0-.051-.006-.1-.006-.159-.038-1.256-.121-4.194-2.874-5.132l-.063-.019a18.307 18.307 0 0 1-5.266-2.4.856.856 0 1 0-.983 1.4 19.758 19.758 0 0 0 5.792 2.646c1.478.527 1.643 2.106 1.688 3.553a1.275 1.275 0 0 0 .006.159 11.516 11.516 0 0 1-.133 1.96 23.348 23.348 0 0 1-11.185 2.6 23.482 23.482 0 0 1-11.191-2.607 10.9 10.9 0 0 1-.133-1.96c0-.051.006-.1.006-.159.044-1.446.209-3.026 1.688-3.553a19.945 19.945 0 0 0 5.792-2.646.856.856 0 1 0-.983-1.4 18.1 18.1 0 0 1-5.266 2.4c-.025.006-.044.013-.063.019-2.753.945-2.836 3.883-2.874 5.132a1.274 1.274 0 0 1-.006.159v.019A9.728 9.728 0 0 0 36.4 270a.814.814 0 0 0 .33.4c.19.127 4.752 3.033 12.384 3.033s12.191-2.912 12.386-3.033a.849.849 0 0 0 .33-.4 10.206 10.206 0 0 0 .3-2.867z" class="cls-1" data-name="Path 1086" transform="translate(-36.073 -242.797)"/>
    </g>
</svg>
